<svg xmlns="http://www.w3.org/2000/svg" width="1200" height="760" viewBox="0 0 1200 760" role="img" aria-labelledby="title desc" font-family="Inter, Noto Sans SC, Microsoft YaHei, Arial, sans-serif"><metadata data-layout="vertical-stack" data-optional-modules="top-band aux-column callout numbered-flow focus-node footer-band"/><title id="title">技术架构模板</title><desc id="desc">纵向技术分层、层内组件均匀横排的技术架构模板。</desc><rect width="1200" height="760" fill="#F6F8FB"/><text x="48" y="50" font-size="26" font-weight="700" fill="#172033">技术架构图</text><text x="48" y="76" font-size="12" fill="#64748B">终端、接入、服务、数据与基础设施纵向分层</text>
<g fill="#FFFFFF" stroke="#D8E1EA"><rect x="48" y="100" width="1104" height="104" rx="16"/><rect x="48" y="220" width="1104" height="104" rx="16"/><rect x="48" y="340" width="1104" height="130" rx="16"/><rect x="48" y="486" width="1104" height="104" rx="16"/><rect x="48" y="606" width="1104" height="104" rx="16"/></g><g fill="#172033" font-size="16" font-weight="700" text-anchor="middle"><text x="600" y="128">终端与渠道层</text><text x="600" y="248">网关与协议层</text><text x="600" y="368">服务与计算层</text><text x="600" y="514">数据与中间件层</text><text x="600" y="634">基础设施与保障层</text></g>
<g fill="#EEF3F8" stroke="#D8E1EA"><rect id="t1" data-role="node" x="92" y="152" width="240" height="32" rx="8"/><rect id="t2" data-role="node" x="360" y="152" width="240" height="32" rx="8"/><rect id="t3" data-role="node" x="628" y="152" width="240" height="32" rx="8"/><rect id="t4" data-role="node" x="896" y="152" width="212" height="32" rx="8"/><rect id="g1" data-role="node" x="92" y="272" width="240" height="32" rx="8"/><rect id="g2" data-role="node" x="360" y="272" width="240" height="32" rx="8"/><rect id="g3" data-role="node" x="628" y="272" width="240" height="32" rx="8"/><rect id="g4" data-role="node" x="896" y="272" width="212" height="32" rx="8"/><rect id="s1" data-role="node" x="92" y="402" width="188" height="32" rx="8"/><rect id="s2" data-role="node" x="300" y="402" width="188" height="32" rx="8"/><rect id="s3" data-role="node" x="508" y="402" width="188" height="32" rx="8"/><rect id="s4" data-role="node" x="716" y="402" width="188" height="32" rx="8"/><rect id="s5" data-role="node" x="924" y="402" width="184" height="32" rx="8"/><rect id="d1" data-role="node" x="92" y="538" width="240" height="32" rx="8"/><rect id="d2" data-role="node" x="360" y="538" width="240" height="32" rx="8"/><rect id="d3" data-role="node" x="628" y="538" width="240" height="32" rx="8"/><rect id="d4" data-role="node" x="896" y="538" width="212" height="32" rx="8"/><rect id="i1" data-role="node" x="92" y="658" width="240" height="32" rx="8"/><rect id="i2" data-role="node" x="360" y="658" width="240" height="32" rx="8"/><rect id="i3" data-role="node" x="628" y="658" width="240" height="32" rx="8"/><rect id="i4" data-role="node" x="896" y="658" width="212" height="32" rx="8"/></g>
<g fill="#475569" font-size="13" font-weight="600" text-anchor="middle"><text x="212" y="173">Web</text><text x="480" y="173">App</text><text x="748" y="173">开放接口</text><text x="1002" y="173">管理终端</text><text x="212" y="293">API 网关</text><text x="480" y="293">认证鉴权</text><text x="748" y="293">流量治理</text><text x="1002" y="293">协议适配</text><text x="186" y="423">领域服务</text><text x="394" y="423">任务调度</text><text x="602" y="423">事件处理</text><text x="810" y="423">规则计算</text><text x="1016" y="423">第三方适配</text><text x="212" y="559">关系数据库</text><text x="480" y="559">缓存与搜索</text><text x="748" y="559">消息队列</text><text x="1002" y="559">对象存储</text><text x="212" y="679">容器平台</text><text x="480" y="679">可观测性</text><text x="748" y="679">安全防护</text><text x="1002" y="679">持续交付</text></g></svg>
