<svg xmlns="http://www.w3.org/2000/svg" width="1200" height="760" viewBox="0 0 1200 760" role="img" aria-labelledby="title desc" font-family="Inter, Noto Sans SC, Microsoft YaHei, Arial, sans-serif"><metadata data-layout="vertical-stack" data-optional-modules="top-band aux-column callout numbered-flow focus-node footer-band"/><title id="title">部署架构模板</title><desc id="desc">访问、流量、部署区域、数据资源和运维保障纵向分区。</desc><rect width="1200" height="760" fill="#F6F8FB"/><text x="48" y="50" font-size="26" font-weight="700" fill="#172033">部署架构图</text><text x="48" y="76" font-size="12" fill="#64748B">部署边界与运维保障分离，仅保留关键访问路径</text><g fill="#FFFFFF" stroke="#D8E1EA"><rect x="48" y="100" width="1104" height="96" rx="16"/><rect x="48" y="212" width="1104" height="96" rx="16"/><rect x="48" y="324" width="1104" height="178" rx="16"/><rect x="48" y="518" width="1104" height="96" rx="16"/><rect x="48" y="630" width="1104" height="82" rx="16"/></g><g fill="#172033" font-size="16" font-weight="700" text-anchor="middle"><text x="600" y="128">访问入口</text><text x="600" y="240">流量接入</text><text x="600" y="352">应用部署区域</text><text x="600" y="546">数据资源</text><text x="600" y="658">平台运维与安全</text></g>
<g fill="#EEF3F8" stroke="#D8E1EA"><rect id="u1" data-role="node" x="170" y="148" width="250" height="32" rx="8"/><rect id="u2" data-role="node" x="475" y="148" width="250" height="32" rx="8"/><rect id="u3" data-role="node" x="780" y="148" width="250" height="32" rx="8"/><rect id="e1" data-role="node" x="170" y="260" width="250" height="32" rx="8"/><rect id="e2" data-role="node" x="475" y="260" width="250" height="32" rx="8"/><rect id="e3" data-role="node" x="780" y="260" width="250" height="32" rx="8"/>
<rect x="80" y="374" width="500" height="104" rx="12" fill="#F8FAFC"/><rect x="620" y="374" width="500" height="104" rx="12" fill="#F8FAFC"/><rect id="p1" data-role="node" x="104" y="422" width="138" height="32" rx="8"/><rect id="p2" data-role="node" x="260" y="422" width="138" height="32" rx="8"/><rect id="p3" data-role="node" x="416" y="422" width="138" height="32" rx="8"/><rect id="p4" data-role="node" x="644" y="422" width="138" height="32" rx="8"/><rect id="p5" data-role="node" x="800" y="422" width="138" height="32" rx="8"/><rect id="p6" data-role="node" x="956" y="422" width="138" height="32" rx="8"/><rect id="d1" data-role="node" x="170" y="566" width="250" height="32" rx="8"/><rect id="d2" data-role="node" x="475" y="566" width="250" height="32" rx="8"/><rect id="d3" data-role="node" x="780" y="566" width="250" height="32" rx="8"/><rect id="o1" data-role="node" x="92" y="674" width="240" height="26" rx="7"/><rect id="o2" data-role="node" x="360" y="674" width="240" height="26" rx="7"/><rect id="o3" data-role="node" x="628" y="674" width="240" height="26" rx="7"/><rect id="o4" data-role="node" x="896" y="674" width="212" height="26" rx="7"/></g>
<g fill="#64748B" font-size="12" font-weight="600" text-anchor="middle"><text x="330" y="400">生产集群</text><text x="870" y="400">容灾集群</text></g><g fill="#475569" font-size="13" font-weight="600" text-anchor="middle"><text x="295" y="169">公网用户</text><text x="600" y="169">合作方</text><text x="905" y="169">运维人员</text><text x="295" y="281">CDN / DNS</text><text x="600" y="281">负载均衡</text><text x="905" y="281">API 网关</text><text x="173" y="443">服务实例</text><text x="329" y="443">服务实例</text><text x="485" y="443">任务实例</text><text x="713" y="443">服务实例</text><text x="869" y="443">服务实例</text><text x="1025" y="443">任务实例</text><text x="295" y="587">数据库集群</text><text x="600" y="587">缓存与消息</text><text x="905" y="587">对象存储</text><text x="212" y="693">监控告警</text><text x="480" y="693">日志追踪</text><text x="748" y="693">发布回滚</text><text x="1002" y="693">安全审计</text></g></svg>
