<?xml version="1.0" encoding="UTF-8"?>
<svg xmlns="http://www.w3.org/2000/svg" viewBox="0 0 1400 1200" width="1400" height="1200">
  <defs>
    <linearGradient id="bgGrad" x1="0%" y1="0%" x2="0%" y2="100%">
      <stop offset="0%" style="stop-color:#f8fafc"/>
      <stop offset="100%" style="stop-color:#e2e8f0"/>
    </linearGradient>
    <linearGradient id="startGrad" x1="0%" y1="0%" x2="0%" y2="100%">
      <stop offset="0%" style="stop-color:#22c55e"/>
      <stop offset="100%" style="stop-color:#16a34a"/>
    </linearGradient>
    <linearGradient id="endGrad" x1="0%" y1="0%" x2="0%" y2="100%">
      <stop offset="0%" style="stop-color:#3b82f6"/>
      <stop offset="100%" style="stop-color:#1d4ed8"/>
    </linearGradient>
    <linearGradient id="processGrad" x1="0%" y1="0%" x2="0%" y2="100%">
      <stop offset="0%" style="stop-color:#8b5cf6"/>
      <stop offset="100%" style="stop-color:#6d28d9"/>
    </linearGradient>
    <linearGradient id="decisionGrad" x1="0%" y1="0%" x2="0%" y2="100%">
      <stop offset="0%" style="stop-color:#f59e0b"/>
      <stop offset="100%" style="stop-color:#d97706"/>
    </linearGradient>
    <linearGradient id="redGrad" x1="0%" y1="0%" x2="0%" y2="100%">
      <stop offset="0%" style="stop-color:#ef4444"/>
      <stop offset="100%" style="stop-color:#dc2626"/>
    </linearGradient>
    <linearGradient id="goldGrad" x1="0%" y1="0%" x2="0%" y2="100%">
      <stop offset="0%" style="stop-color:#f59e0b"/>
      <stop offset="100%" style="stop-color:#d97706"/>
    </linearGradient>
    <linearGradient id="queueGrad" x1="0%" y1="0%" x2="0%" y2="100%">
      <stop offset="0%" style="stop-color:#06b6d4"/>
      <stop offset="100%" style="stop-color:#0891b2"/>
    </linearGradient>
    <linearGradient id="cacheGrad" x1="0%" y1="0%" x2="0%" y2="100%">
      <stop offset="0%" style="stop-color:#ec4899"/>
      <stop offset="100%" style="stop-color:#db2777"/>
    </linearGradient>
    <linearGradient id="lockGrad" x1="0%" y1="0%" x2="0%" y2="100%">
      <stop offset="0%" style="stop-color:#10b981"/>
      <stop offset="100%" style="stop-color:#059669"/>
    </linearGradient>
    <filter id="shadow" x="-20%" y="-20%" width="140%" height="140%">
      <feDropShadow dx="2" dy="3" stdDeviation="3" flood-opacity="0.12"/>
    </filter>
  </defs>
  
  <rect width="1400" height="1200" fill="url(#bgGrad)"/>
  
  <text x="700" y="35" font-family="Arial, sans-serif" font-size="24" font-weight="bold" fill="#1e293b" text-anchor="middle">High Concurrency Red Packet (Red Envelope) Flow</text>
  
  <!-- ==================== Left Side: Send Red Packet ==================== -->
  <text x="180" y="70" font-family="Arial, sans-serif" font-size="16" font-weight="bold" fill="#dc2626">Send Red Packet</text>
  
  <!-- Start: User sends -->
  <g filter="url(#shadow)">
    <ellipse cx="180" cy="95" rx="70" ry="30" fill="url(#startGrad)"/>
    <text x="180" y="102" font-family="Arial, sans-serif" font-size="13" font-weight="bold" fill="white" text-anchor="middle">User A</text>
    <text x="180" y="118" font-family="Arial, sans-serif" font-size="13" font-weight="bold" fill="white" text-anchor="middle">Send Packet</text>
  </g>
  
  <!-- Input Info -->
  <g filter="url(#shadow)">
    <rect x="80" y="145" width="200" height="45" rx="8" fill="url(#processGrad)"/>
    <text x="180" y="175" font-family="Arial, sans-serif" font-size="13" font-weight="bold" fill="white" text-anchor="middle">Input Amount & Count</text>
  </g>
  <g filter="url(#shadow)">
    <rect x="80" y="205" width="200" height="45" rx="8" fill="url(#processGrad)"/>
    <text x="180" y="235" font-family="Arial, sans-serif" font-size="13" font-weight="bold" fill="white" text-anchor="middle">Select Distribution Type</text>
  </g>
  
  <!-- Distribution Type -->
  <g filter="url(#shadow)">
    <polygon points="180,280 280,330 180,380 80,330" fill="url(#decisionGrad)"/>
    <text x="180" y="325" font-family="Arial, sans-serif" font-size="11" font-weight="bold" fill="white" text-anchor="middle">Distribution</text>
    <text x="180" y="340" font-family="Arial, sans-serif" font-size="11" font-weight="bold" fill="white" text-anchor="middle">Type?</text>
  </g>
  
  <!-- Normal Type -->
  <g filter="url(#shadow)">
    <rect x="50" y="400" width="140" height="40" rx="6" fill="#10b981"/>
    <text x="120" y="425" font-family="Arial, sans-serif" font-size="12" font-weight="bold" fill="white" text-anchor="middle">Average</text>
  </g>
  <g filter="url(#shadow)">
    <rect x="200" y="400" width="140" height="40" rx="6" fill="#f59e0b"/>
    <text x="270" y="425" font-family="Arial, sans-serif" font-size="12" font-weight="bold" fill="white" text-anchor="middle">Random</text>
  </g>
  
  <!-- Calculate Amounts -->
  <g filter="url(#shadow)">
    <rect x="50" y="455" width="260" height="45" rx="8" fill="url(#processGrad)"/>
    <text x="180" y="485" font-family="Arial, sans-serif" font-size="13" font-weight="bold" fill="white" text-anchor="middle">Calculate Each Amount</text>
  </g>
  
  <!-- Pre-generate -->
  <g filter="url(#shadow)">
    <rect x="50" y="515" width="260" height="45" rx="8" fill="url(#processGrad)"/>
    <text x="180" y="545" font-family="Arial, sans-serif" font-size="13" font-weight="bold" fill="white" text-anchor="middle">Pre-generate Packet IDs</text>
  </g>
  
  <!-- Payment -->
  <g filter="url(#shadow)">
    <rect x="50" y="575" width="260" height="45" rx="8" fill="url(#goldGrad)"/>
    <text x="180" y="605" font-family="Arial, sans-serif" font-size="13" font-weight="bold" fill="white" text-anchor="middle">Payment Deduction</text>
  </g>
  
  <!-- Store to DB -->
  <g filter="url(#shadow)">
    <rect x="50" y="635" width="260" height="45" rx="8" fill="url(#processGrad)"/>
    <text x="180" y="665" font-family="Arial, sans-serif" font-size="13" font-weight="bold" fill="white" text-anchor="middle">Store to Database</text>
  </g>
  
  <!-- Cache to Redis -->
  <g filter="url(#shadow)">
    <rect x="50" y="695" width="260" height="45" rx="8" fill="url(#cacheGrad)"/>
    <text x="180" y="725" font-family="Arial, sans-serif" font-size="13" font-weight="bold" fill="white" text-anchor="middle">Cache to Redis</text>
  </g>
  
  <!-- Generate Link -->
  <g filter="url(#shadow)">
    <rect x="50" y="755" width="260" height="45" rx="8" fill="url(#processGrad)"/>
    <text x="180" y="785" font-family="Arial, sans-serif" font-size="13" font-weight="bold" fill="white" text-anchor="middle">Generate Share Link</text>
  </g>
  
  <!-- Send Notification -->
  <g filter="url(#shadow)">
    <rect x="50" y="815" width="260" height="45" rx="8" fill="url(#processGrad)"/>
    <text x="180" y="845" font-family="Arial, sans-serif" font-size="13" font-weight="bold" fill="white" text-anchor="middle">Send Notification</text>
  </g>
  
  <!-- Send Success -->
  <g filter="url(#shadow)">
    <ellipse cx="180" cy="895" rx="60" ry="25" fill="url(#endGrad)"/>
    <text x="180" y="902" font-family="Arial, sans-serif" font-size="13" font-weight="bold" fill="white" text-anchor="middle">Send Success</text>
  </g>
  
  <!-- ==================== Right Side: Grab Red Packet ==================== -->
  <text x="1050" y="70" font-family="Arial, sans-serif" font-size="16" font-weight="bold" fill="#dc2626">Grab Red Packet</text>
  
  <!-- Start: User B grabs -->
  <g filter="url(#shadow)">
    <ellipse cx="1050" cy="95" rx="70" ry="30" fill="url(#startGrad)"/>
    <text x="1050" y="102" font-family="Arial, sans-serif" font-size="13" font-weight="bold" fill="white" text-anchor="middle">User B</text>
    <text x="1050" y="118" font-family="Arial, sans-serif" font-size="13" font-weight="bold" fill="white" text-anchor="middle">Click Grab</text>
  </g>
  
  <!-- Rate Limiting -->
  <g filter="url(#shadow)">
    <rect x="950" y="145" width="200" height="45" rx="8" fill="url(#queueGrad)"/>
    <text x="1050" y="175" font-family="Arial, sans-serif" font-size="13" font-weight="bold" fill="white" text-anchor="middle">Rate Limiting (Sentinel)</text>
  </g>
  
  <!-- Reject if exceed -->
  <g filter="url(#shadow)">
    <polygon points="1050,220 1150,270 1050,320 950,270" fill="url(#decisionGrad)"/>
    <text x="1050" y="265" font-family="Arial, sans-serif" font-size="11" font-weight="bold" fill="white" text-anchor="middle">Within</text>
    <text x="1050" y="280" font-family="Arial, sans-serif" font-size="11" font-weight="bold" fill="white" text-anchor="middle">Limit?</text>
  </g>
  
  <!-- Reject -->
  <g filter="url(#shadow)">
    <rect x="950" y="340" width="120" height="35" rx="6" fill="url(#redGrad)"/>
    <text x="1010" y="363" font-family="Arial, sans-serif" font-size="12" font-weight="bold" fill="white" text-anchor="middle">429 Too Many</text>
  </g>
  
  <!-- Continue: Load from Cache -->
  <g filter="url(#shadow)">
    <rect x="950" y="340" width="200" height="45" rx="8" fill="url(#cacheGrad)"/>
    <text x="1050" y="370" font-family="Arial, sans-serif" font-size="13" font-weight="bold" fill="white" text-anchor="middle">Load from Redis</text>
  </g>
  
  <!-- Check Packet Status -->
  <g filter="url(#shadow)">
    <polygon points="1050,415 1150,465 1050,515 950,465" fill="url(#decisionGrad)"/>
    <text x="1050" y="460" font-family="Arial, sans-serif" font-size="11" font-weight="bold" fill="white" text-anchor="middle">Valid?</text>
  </g>
  
  <!-- Invalid -->
  <g filter="url(#shadow)">
    <rect x="920" y="535" width="120" height="35" rx="6" fill="url(#redGrad)"/>
    <text x="980" y="558" font-family="Arial, sans-serif" font-size="12" font-weight="bold" fill="white" text-anchor="middle">Expired/Empty</text>
  </g>
  
  <!-- Valid: Distributed Lock -->
  <g filter="url(#shadow)">
    <rect x="950" y="535" width="200" height="45" rx="8" fill="url(#lockGrad)"/>
    <text x="1050" y="565" font-family="Arial, sans-serif" font-size="13" font-weight="bold" fill="white" text-anchor="middle">Acquire Lock (Redis)</text>
  </g>
  
  <!-- Double Check -->
  <g filter="url(#shadow)">
    <polygon points="1050,610 1150,660 1050,710 950,660" fill="url(#decisionGrad)"/>
    <text x="1050" y="655" font-family="Arial, sans-serif" font-size="11" font-weight="bold" fill="white" text-anchor="middle">Still</text>
    <text x="1050" y="670" font-family="Arial, sans-serif" font-size="11" font-weight="bold" fill="white" text-anchor="middle">Available?</text>
  </g>
  
  <!-- Not Available -->
  <g filter="url(#shadow)">
    <rect x="920" y="730" width="120" height="35" rx="6" fill="url(#redGrad)"/>
    <text x="980" y="753" font-family="Arial, sans-serif" font-size="12" font-weight="bold" fill="white" text-anchor="middle">Grabbed Out</text>
  </g>
  
  <!-- Available: Get Amount -->
  <g filter="url(#shadow)">
    <rect x="950" y="730" width="200" height="45" rx="8" fill="url(#goldGrad)"/>
    <text x="1050" y="760" font-family="Arial, sans-serif" font-size="13" font-weight="bold" fill="white" text-anchor="middle">Get Pre-calculated</text>
    <text x="1050" y="778" font-family="Arial, sans-serif" font-size="11" font-weight="bold" fill="white" text-anchor="middle">Amount</text>
  </g>
  
  <!-- Update Cache -->
  <g filter="url(#shadow)">
    <rect x="950" y="790" width="200" height="45" rx="8" fill="url(#cacheGrad)"/>
    <text x="1050" y="820" font-family="Arial, sans-serif" font-size="13" font-weight="bold" fill="white" text-anchor="middle">Update Redis</text>
  </g>
  
  <!-- Release Lock -->
  <g filter="url(#shadow)">
    <rect x="950" y="850" width="200" height="45" rx="8" fill="url(#lockGrad)"/>
    <text x="1050" y="880" font-family="Arial, sans-serif" font-size="13" font-weight="bold" fill="white" text-anchor="middle">Release Lock</text>
  </g>
  
  <!-- Async Write DB -->
  <g filter="url(#shadow)">
    <rect x="950" y="910" width="200" height="45" rx="8" fill="url(#processGrad)"/>
    <text x="1050" y="940" font-family="Arial, sans-serif" font-size="13" font-weight="bold" fill="white" text-anchor="middle">Async Write to DB</text>
  </g>
  
  <!-- Return Amount -->
  <g filter="url(#shadow)">
    <rect x="950" y="970" width="200" height="45" rx="8" fill="url(#endGrad)"/>
    <text x="1050" y="1000" font-family="Arial, sans-serif" font-size="13" font-weight="bold" fill="white" text-anchor="middle">Return Amount</text>
  </g>
  
  <!-- Push Notification -->
  <g filter="url(#shadow)">
    <rect x="950" y="1030" width="200" height="45" rx="8" fill="url(#processGrad)"/>
    <text x="1050" y="1060" font-family="Arial, sans-serif" font-size="13" font-weight="bold" fill="white" text-anchor="middle">Push to User A</text>
  </g>
  
  <!-- Grab Success -->
  <g filter="url(#shadow)">
    <ellipse cx="1050" cy="1110" rx="60" ry="25" fill="url(#endGrad)"/>
    <text x="1050" y="1117" font-family="Arial, sans-serif" font-size="13" font-weight="bold" fill="white" text-anchor="middle">Grab Success</text>
  </g>
  
  <!-- ==================== Middle: High Concurrency Mechanisms ==================== -->
  <text x="700" y="280" font-family="Arial, sans-serif" font-size="14" font-weight="bold" fill="#0891b2">High Concurrency Mechanisms</text>
  
  <!-- Rate Limiting -->
  <g filter="url(#shadow)">
    <rect x="520" y="300" width="180" height="45" rx="8" fill="url(#queueGrad)"/>
    <text x="610" y="330" font-family="Arial, sans-serif" font-size="12" font-weight="bold" fill="white" text-anchor="middle">Rate Limiting</text>
    <text x="610" y="346" font-family="Arial, sans-serif" font-size="10" fill="white" text-anchor="middle">Sentinel /令牌桶</text>
  </g>
  <g filter="url(#shadow)">
    <rect x="700" y="300" width="180" height="45" rx="8" fill="url(#cacheGrad)"/>
    <text x="790" y="330" font-family="Arial, sans-serif" font-size="12" font-weight="bold" fill="white" text-anchor="middle">Local Cache</text>
    <text x="790" y="346" font-family="Arial, sans-serif" font-size="10" fill="white" text-anchor="middle">Guava / Caffeine</text>
  </g>
  <g filter="url(#shadow)">
    <rect x="880" y="300" width="180" height="45" rx="8" fill="url(#cacheGrad)"/>
    <text x="970" y="330" font-family="Arial, sans-serif" font-size="12" font-weight="bold" fill="white" text-anchor="middle">Distributed Cache</text>
    <text x="970" y="346" font-family="Arial, sans-serif" font-size="10" fill="white" text-anchor="middle">Redis Cluster</text>
  </g>
  
  <g filter="url(#shadow)">
    <rect x="520" y="360" width="180" height="45" rx="8" fill="url(#lockGrad)"/>
    <text x="610" y="390" font-family="Arial, sans-serif" font-size="12" font-weight="bold" fill="white" text-anchor="middle">Distributed Lock</text>
    <text x="610" y="406" font-family="Arial, sans-serif" font-size="10" fill="white" text-anchor="middle">Redisson</text>
  </g>
  <g filter="url(#shadow)">
    <rect x="700" y="360" width="180" height="45" rx="8" fill="url(#queueGrad)"/>
    <text x="790" y="390" font-family="Arial, sans-serif" font-size="12" font-weight="bold" fill="white" text-anchor="middle">Message Queue</text>
    <text x="790" y="406" font-family="Arial, sans-serif" font-size="10" fill="white" text-anchor="middle">Kafka / RocketMQ</text>
  </g>
  <g filter="url(#shadow)">
    <rect x="880" y="360" width="180" height="45" rx="8" fill="url(#processGrad)"/>
    <text x="970" y="390" font-family="Arial, sans-serif" font-size="12" font-weight="bold" fill="white" text-anchor="middle">Async Processing</text>
    <text x="970" y="406" font-family="Arial, sans-serif" font-size="10" fill="white" text-anchor="middle">Thread Pool</text>
  </g>
  
  <g filter="url(#shadow)">
    <rect x="520" y="420" width="180" height="45" rx="8" fill="url(#processGrad)"/>
    <text x="610" y="450" font-family="Arial, sans-serif" font-size="12" font-weight="bold" fill="white" text-anchor="middle">Pre-calculation</text>
    <text x="610" y="466" font-family="Arial, sans-serif" font-size="10" fill="white" text-anchor="middle">提前计算金额</text>
  </g>
  <g filter="url(#shadow)">
    <rect x="700" y="420" width="180" height="45" rx="8" fill="url(#processGrad)"/>
    <text x="790" y="450" font-family="Arial, sans-serif" font-size="12" font-weight="bold" fill="white" text-anchor="middle">Database Sharding</text>
    <text x="790" y="466" font-family="Arial, sans-serif" font-size="10" fill="white" text-anchor="middle">分库分表</text>
  </g>
  <g filter="url(#shadow)">
    <rect x="880" y="420" width="180" height="45" rx="8" fill="url(#processGrad)"/>
    <text x="970" y="450" font-family="Arial, sans-serif" font-size="12" font-weight="bold" fill="white" text-anchor="middle">Hot Data Isolation</text>
    <text x="970" y="466" font-family="Arial, sans-serif" font-size="10" fill="white" text-anchor="middle">热点数据隔离</text>
  </g>
  
  <!-- ==================== Database Architecture ==================== -->
  <text x="700" y="510" font-family="Arial, sans-serif" font-size="14" font-weight="bold" fill="#0891b2">Data Storage Architecture</text>
  
  <g filter="url(#shadow)">
    <rect x="520" y="530" width="160" height="40" rx="6" fill="#10b981"/>
    <text x="600" y="555" font-family="Arial, sans-serif" font-size="12" font-weight="bold" fill="white" text-anchor="middle">Red Packet Main</text>
  </g>
  <g filter="url(#shadow)">
    <rect x="690" y="530" width="160" height="40" rx="6" fill="#10b981"/>
    <text x="770" y="555" font-family="Arial, sans-serif" font-size="12" font-weight="bold" fill="white" text-anchor="middle">Packet Amount</text>
  </g>
  <g filter="url(#shadow)">
    <rect x="860" y="530" width="160" height="40" rx="6" fill="#10b981"/>
    <text x="940" y="555" font-family="Arial, sans-serif" font-size="12" font-weight="bold" fill="white" text-anchor="middle">Grab Record</text>
  </g>
  <g filter="url(#shadow)">
    <rect x="520" y="580" width="160" height="40" rx="6" fill="#06b6d4"/>
    <text x="600" y="605" font-family="Arial, sans-serif" font-size="12" font-weight="bold" fill="white" text-anchor="middle">MySQL</text>
  </g>
  <g filter="url(#shadow)">
    <rect x="690" y="580" width="160" height="40" rx="6" fill="#06b6d4"/>
    <text x="770" y="605" font-family="Arial, sans-serif" font-size="12" font-weight="bold" fill="white" text-anchor="middle">Redis</text>
  </g>
  <g filter="url(#shadow)">
    <rect x="860" y="580" width="160" height="40" rx="6" fill="#ec4899"/>
    <text x="940" y="605" font-family="Arial, sans-serif" font-size="12" font-weight="bold" fill="white" text-anchor="middle">ES (Analytics)</text>
  </g>
  
  <!-- ==================== Connecting Lines ==================== -->
  <g stroke="#94a3b8" stroke-width="1.5" fill="none">
    <!-- Send Flow -->
    <line x1="180" y1="125" x2="180" y2="145"/>
    <line x1="180" y1="190" x2="180" y2="205"/>
    <line x1="180" y1="250" x2="180" y2="280"/>
    <line x1="80" y1="330" x2="80" y2="365"/>
    <line x1="120" y1="330" x2="120" y2="365"/>
    <line x1="240" y1="330" x2="240" y2="365"/>
    <line x1="280" y1="330" x2="280" y2="365"/>
    <line x1="180" y1="380" x2="180" y2="420"/>
    <line x1="180" y1="440" x2="180" y2="455"/>
    <line x1="180" y1="500" x2="180" y2="515"/>
    <line x1="180" y1="560" x2="180" y2="575"/>
    <line x1="180" y1="620" x2="180" y2="635"/>
    <line x1="180" y1="680" x2="180" y2="695"/>
    <line x1="180" y1="740" x2="180" y2="755"/>
    <line x1="180" y1="800" x2="180" y2="815"/>
    <line x1="180" y1="860" x2="180" y2="870"/>
    
    <!-- Rate Limit Decision -->
    <line x1="1050" y1="125" x2="1050" y2="145"/>
    <line x1="1050" y1="190" x2="950" y2="220"/>
    <line x1="1050" y1="270" x2="950" y2="295"/>
    <line x1="1050" y1="270" x2="1050" y2="305"/>
    <line x1="1050" y1="320" x2="1050" y2="340"/>
    
    <!-- Check Status -->
    <line x1="1050" y1="385" x2="920" y2="415"/>
    <line x1="1050" y1="385" x2="1050" y2="380"/>
    <line x1="1050" y1="465" x2="980" y2="490"/>
    <line x1="1050" y1="515" x2="1050" y2="535"/>
    
    <!-- Lock -->
    <line x1="1050" y1="580" x2="950" y2="610"/>
    <line x1="1050" y1="660" x2="980" y2="690"/>
    <line x1="1050" y1="660" x2="1050" y2="695"/>
    <line x1="1050" y1="710" x2="1050" y2="730"/>
    <line x1="1050" y1="775" x2="1050" y2="790"/>
    <line x1="1050" y1="835" x2="1050" y2="850"/>
    <line x1="1050" y1="895" x2="1050" y2="910"/>
    <line x1="1050" y1="955" x2="1050" y2="970"/>
    <line x1="1050" y1="1015" x2="1050" y2="1030"/>
    <line x1="1050" y1="1075" x2="1050" y2="1085"/>
    
    <!-- Cross to mechanisms -->
    <line x1="310" y1="545" x2="520" y2="545"/>
    <line x1="310" y1="545" x2="520" y2="330"/>
    <line x1="790" y1="545" x2="880" y2="545"/>
    <line x1="1050" y1="545" x2="1050" y2="535"/>
  </g>
  
  <!-- Legend -->
  <g transform="translate(20, 20)">
    <ellipse cx="12" cy="12" rx="10" ry="8" fill="url(#startGrad)"/>
    <text x="30" y="16" font-family="Arial, sans-serif" font-size="10" fill="#64748b">Start</text>
    
    <rect x="0" y="28" width="24" height="18" rx="4" fill="url(#processGrad)"/>
    <text x="30" y="42" font-family="Arial, sans-serif" font-size="10" fill="#64748b">Process</text>
    
    <polygon points="12,55 22,65 12,75 2,65" fill="url(#decisionGrad)"/>
    <text x="30" y="68" font-family="Arial, sans-serif" font-size="10" fill="#64748b">Decision</text>
    
    <rect x="0" y="82" width="24" height="18" rx="4" fill="url(#cacheGrad)"/>
    <text x="30" y="96" font-family="Arial, sans-serif" font-size="10" fill="#64748b">Cache</text>
    
    <rect x="0" y="106" width="24" height="18" rx="4" fill="url(#lockGrad)"/>
    <text x="30" y="120" font-family="Arial, sans-serif" font-size="10" fill="#64748b">Lock</text>
    
    <rect x="0" y="130" width="24" height="18" rx="4" fill="url(#queueGrad)"/>
    <text x="30" y="144" font-family="Arial, sans-serif" font-size="10" fill="#64748b">Queue</text>
  </g>
</svg>