<?xml version="1.0" encoding="UTF-8"?>
<svg xmlns="http://www.w3.org/2000/svg" viewBox="0 0 1400 1350" width="1400" height="1350">
  <defs>
    <linearGradient id="bgGrad" x1="0%" y1="0%" x2="0%" y2="100%">
      <stop offset="0%" style="stop-color:#fefce8"/>
      <stop offset="100%" style="stop-color:#fef9c3"/>
    </linearGradient>
    <linearGradient id="redGrad" x1="0%" y1="0%" x2="100%" y2="100%">
      <stop offset="0%" style="stop-color:#ef4444"/>
      <stop offset="50%" style="stop-color:#dc2626"/>
      <stop offset="100%" style="stop-color:#b91c1c"/>
    </linearGradient>
    <linearGradient id="goldGrad" x1="0%" y1="0%" x2="0%" y2="100%">
      <stop offset="0%" style="stop-color:#fbbf24"/>
      <stop offset="100%" style="stop-color:#d97706"/>
    </linearGradient>
    <linearGradient id="blueGrad" x1="0%" y1="0%" x2="0%" y2="100%">
      <stop offset="0%" style="stop-color:#3b82f6"/>
      <stop offset="100%" style="stop-color:#1d4ed8"/>
    </linearGradient>
    <linearGradient id="greenGrad" x1="0%" y1="0%" x2="0%" y2="100%">
      <stop offset="0%" style="stop-color:#22c55e"/>
      <stop offset="100%" style="stop-color:#16a34a"/>
    </linearGradient>
    <linearGradient id="purpleGrad" x1="0%" y1="0%" x2="0%" y2="100%">
      <stop offset="0%" style="stop-color:#a855f7"/>
      <stop offset="100%" style="stop-color:#7c3aed"/>
    </linearGradient>
    <linearGradient id="cyanGrad" x1="0%" y1="0%" x2="0%" y2="100%">
      <stop offset="0%" style="stop-color:#06b6d4"/>
      <stop offset="100%" style="stop-color:#0891b2"/>
    </linearGradient>
    <linearGradient id="pinkGrad" x1="0%" y1="0%" x2="0%" y2="100%">
      <stop offset="0%" style="stop-color:#ec4899"/>
      <stop offset="100%" style="stop-color:#db2777"/>
    </linearGradient>
    <filter id="shadow" x="-20%" y="-20%" width="140%" height="140%">
      <feDropShadow dx="3" dy="4" stdDeviation="4" flood-opacity="0.15"/>
    </filter>
  </defs>
  
  <rect width="1400" height="1350" fill="url(#bgGrad)"/>
  
  <text x="700" y="40" font-family="Microsoft YaHei, Arial, sans-serif" font-size="28" font-weight="bold" fill="#b91c1c" text-anchor="middle">高并发抢红包流程图</text>
  <text x="700" y="65" font-family="Microsoft YaHei, Arial, sans-serif" font-size="14" fill="#64748b" text-anchor="middle">High Concurrency Red Packet Grabbing Flow</text>
  
  <!-- ==================== 第一层: 用户请求入口 ==================== -->
  <rect x="20" y="95" width="200" height="30" rx="6" fill="#fef3c7" stroke="#f59e0b" stroke-width="2"/>
  <text x="120" y="116" font-family="Microsoft YaHei, Arial, sans-serif" font-size="14" font-weight="bold" fill="#b45309" text-anchor="middle">① 用户请求入口层</text>
  
  <!-- 用户点击 -->
  <g filter="url(#shadow)">
    <ellipse cx="120" cy="160" rx="80" ry="35" fill="url(#redGrad)"/>
    <text x="120" y="165" font-family="Microsoft YaHei, Arial, sans-serif" font-size="15" font-weight="bold" fill="white" text-anchor="middle">用户点击</text>
    <text x="120" y="185" font-family="Microsoft YaHei, Arial, sans-serif" font-size="12" fill="white" text-anchor="middle">抢红包按钮</text>
  </g>
  
  <!-- DNS/LB -->
  <g filter="url(#shadow)">
    <rect x="30" y="220" width="180" height="45" rx="8" fill="url(#blueGrad)"/>
    <text x="120" y="248" font-family="Microsoft YaHei, Arial, sans-serif" font-size="14" font-weight="bold" fill="white" text-anchor="middle">DNS → L4/L7负载均衡</text>
  </g>
  
  <!-- CDN -->
  <g filter="url(#shadow)">
    <rect x="30" y="280" width="180" height="45" rx="8" fill="url(#blueGrad)"/>
    <text x="120" y="308" font-family="Microsoft YaHei, Arial, sans-serif" font-size="14" font-weight="bold" fill="white" text-anchor="middle">CDN边缘节点</text>
  </g>
  
  <!-- WAF -->
  <g filter="url(#shadow)">
    <rect x="30" y="340" width="180" height="45" rx="8" fill="url(#blueGrad)"/>
    <text x="120" y="368" font-family="Microsoft YaHei, Arial, sans-serif" font-size="14" font-weight="bold" fill="white" text-anchor="middle">WAF安全防护</text>
  </g>
  
  <!-- ==================== 第二层: 限流防护层 ==================== -->
  <rect x="250" y="95" width="200" height="30" rx="6" fill="#dbeafe" stroke="#3b82f6" stroke-width="2"/>
  <text x="350" y="116" font-family="Microsoft YaHei, Arial, sans-serif" font-size="14" font-weight="bold" fill="#1d4ed8" text-anchor="middle">② 限流防护层</text>
  
  <!-- API Gateway -->
  <g filter="url(#shadow)">
    <rect x="260" y="145" width="180" height="50" rx="8" fill="url(#cyanGrad)"/>
    <text x="350" y="175" font-family="Microsoft YaHei, Arial, sans-serif" font-size="14" font-weight="bold" fill="white" text-anchor="middle">API Gateway</text>
  </g>
  
  <!-- Rate Limiting -->
  <g filter="url(#shadow)">
    <rect x="260" y="210" width="180" height="50" rx="8" fill="url(#purpleGrad)"/>
    <text x="350" y="240" font-family="Microsoft YaHei, Arial, sans-serif" font-size="14" font-weight="bold" fill="white" text-anchor="middle">限流熔断 (Sentinel)</text>
  </g>
  
  <!-- 限流策略 -->
  <g filter="url(#shadow)">
    <rect x="260" y="275" width="180" height="50" rx="8" fill="url(#purpleGrad)"/>
    <text x="350" y="305" font-family="Microsoft YaHei, Arial, sans-serif" font-size="13" font-weight="bold" fill="white" text-anchor="middle">计数器 / 滑动窗口</text>
    <text x="350" y="322" font-family="Microsoft YaHei, Arial, sans-serif" font-size="11" fill="white" text-anchor="middle">令牌桶 / 漏桶</text>
  </g>
  
  <!-- 限流决策 -->
  <g filter="url(#shadow)">
    <polygon points="350,350 430,400 350,450 270,400" fill="url(#goldGrad)"/>
    <text x="350" y="395" font-family="Microsoft YaHei, Arial, sans-serif" font-size="12" font-weight="bold" fill="white" text-anchor="middle">是否</text>
    <text x="350" y="415" font-family="Microsoft YaHei, Arial, sans-serif" font-size="12" font-weight="bold" fill="white" text-anchor="middle">通过?</text>
  </g>
  
  <!-- 限流拒绝 -->
  <g filter="url(#shadow)">
    <rect x="80" y="435" width="140" height="40" rx="8" fill="#ef4444"/>
    <text x="150" y="460" font-family="Microsoft YaHei, Arial, sans-serif" font-size="13" font-weight="bold" fill="white" text-anchor="middle">返回429</text>
  </g>
  
  <!-- ==================== 第三层: 业务处理层 ==================== -->
  <rect x="480" y="95" width="200" height="30" rx="6" fill="#fce7f3" stroke="#ec4899" stroke-width="2"/>
  <text x="580" y="116" font-family="Microsoft YaHei, Arial, sans-serif" font-size="14" font-weight="bold" fill="#be185d" text-anchor="middle">③ 业务处理层</text>
  
  <!-- 通过限流 -->
  <g filter="url(#shadow)">
    <rect x="500" y="145" width="160" height="50" rx="8" fill="url(#greenGrad)"/>
    <text x="580" y="175" font-family="Microsoft YaHei, Arial, sans-serif" font-size="14" font-weight="bold" fill="white" text-anchor="middle">通过限流</text>
  </g>
  
  <!-- 请求分发 -->
  <g filter="url(#shadow)">
    <rect x="500" y="210" width="160" height="50" rx="8" fill="url(#blueGrad)"/>
    <text x="580" y="240" font-family="Microsoft YaHei, Arial, sans-serif" font-size="14" font-weight="bold" fill="white" text-anchor="middle">请求分发</text>
  </g>
  
  <!-- 热点检测 -->
  <g filter="url(#shadow)">
    <rect x="500" y="275" width="160" height="50" rx="8" fill="url(#pinkGrad)"/>
    <text x="580" y="305" font-family="Microsoft YaHei, Arial, sans-serif" font-size="14" font-weight="bold" fill="white" text-anchor="middle">热点检测</text>
  </g>
  
  <!-- ==================== 第四层: 缓存层 ==================== -->
  <rect x="720" y="95" width="200" height="30" rx="6" fill="#dcfce7" stroke="#22c55e" stroke-width="2"/>
  <text x="820" y="116" font-family="Microsoft YaHei, Arial, sans-serif" font-size="14" font-weight="bold" fill="#15803d" text-anchor="middle">④ 缓存层</text>
  
  <!-- 本地缓存 -->
  <g filter="url(#shadow)">
    <rect x="740" y="145" width="160" height="50" rx="8" fill="url(#purpleGrad)"/>
    <text x="820" y="175" font-family="Microsoft YaHei, Arial, sans-serif" font-size="14" font-weight="bold" fill="white" text-anchor="middle">本地缓存 (Caffeine)</text>
  </g>
  
  <!-- Redis缓存 -->
  <g filter="url(#shadow)">
    <rect x="740" y="210" width="160" height="50" rx="8" fill="url(#redGrad)"/>
    <text x="820" y="240" font-family="Microsoft YaHei, Arial, sans-serif" font-size="14" font-weight="bold" fill="white" text-anchor="middle">Redis缓存集群</text>
  </g>
  
  <!-- 查询红包 -->
  <g filter="url(#shadow)">
    <rect x="740" y="275" width="160" height="50" rx="8" fill="url(#goldGrad)"/>
    <text x="820" y="305" font-family="Microsoft YaHei, Arial, sans-serif" font-size="14" font-weight="bold" fill="white" text-anchor="middle">查询红包信息</text>
  </g>
  
  <!-- 红包状态检查 -->
  <g filter="url(#shadow)">
    <polygon points="820,360 900,410 820,460 740,410" fill="url(#goldGrad)"/>
    <text x="820" y="405" font-family="Microsoft YaHei, Arial, sans-serif" font-size="12" font-weight="bold" fill="white" text-anchor="middle">红包</text>
    <text x="820" y="425" font-family="Microsoft YaHei, Arial, sans-serif" font-size="12" font-weight="bold" fill="white" text-anchor="middle">有效?</text>
  </g>
  
  <!-- 无效返回 -->
  <g filter="url(#shadow)">
    <rect x="600" y="440" width="120" height="40" rx="8" fill="#ef4444"/>
    <text x="660" y="465" font-family="Microsoft YaHei, Arial, sans-serif" font-size="13" font-weight="bold" fill="white" text-anchor="middle">已抢完</text>
  </g>
  
  <!-- ==================== 第五层: 分布式锁 ==================== -->
  <rect x="950" y="95" width="200" height="30" rx="6" fill="#f3e8ff" stroke="#a855f7" stroke-width="2"/>
  <text x="1050" y="116" font-family="Microsoft YaHei, Arial, sans-serif" font-size="14" font-weight="bold" fill="#7e22ce" text-anchor="middle">⑤ 分布式锁层</text>
  
  <!-- 有效获取锁 -->
  <g filter="url(#shadow)">
    <rect x="970" y="145" width="160" height="50" rx="8" fill="url(#greenGrad)"/>
    <text x="1050" y="175" font-family="Microsoft YaHei, Arial, sans-serif" font-size="14" font-weight="bold" fill="white" text-anchor="middle">获取分布式锁</text>
  </g>
  
  <!-- Redisson -->
  <g filter="url(#shadow)">
    <rect x="970" y="210" width="160" height="50" rx="8" fill="url(#cyanGrad)"/>
    <text x="1050" y="240" font-family="Microsoft YaHei, Arial, sans-serif" font-size="14" font-weight="bold" fill="white" text-anchor="middle">Redisson</text>
  </g>
  
  <!-- 双重检测 -->
  <g filter="url(#shadow)">
    <rect x="970" y="275" width="160" height="50" rx="8" fill="url(#pinkGrad)"/>
    <text x="1050" y="305" font-family="Microsoft YaHei, Arial, sans-serif" font-size="14" font-weight="bold" fill="white" text-anchor="middle">双重检测库存</text>
  </g>
  
  <!-- 锁获取决策 -->
  <g filter="url(#shadow)">
    <polygon points="1050,360 1130,410 1050,460 970,410" fill="url(#greenGrad)"/>
    <text x="1050" y="405" font-family="Microsoft YaHei, Arial, sans-serif" font-size="12" font-weight="bold" fill="white" text-anchor="middle">获取</text>
    <text x="1050" y="425" font-family="Microsoft YaHei, Arial, sans-serif" font-size="12" font-weight="bold" fill="white" text-anchor="middle">成功?</text>
  </g>
  
  <!-- 获取失败 -->
  <g filter="url(#shadow)">
    <rect x="830" y="435" width="120" height="40" rx="8" fill="#f59e0b"/>
    <text x="890" y="460" font-family="Microsoft YaHei, Arial, sans-serif" font-size="13" font-weight="bold" fill="white" text-anchor="middle">重试/等待</text>
  </g>
  
  <!-- ==================== 第六层: 扣减库存 ==================== -->
  <rect x="1160" y="95" width="200" height="30" rx="6" fill="#fee2e2" stroke="#ef4444" stroke-width="2"/>
  <text x="1260" y="116" font-family="Microsoft YaHei, Arial, sans-serif" font-size="14" font-weight="bold" fill="#b91c1c" text-anchor="middle">⑥ 扣减库存层</text>
  
  <!-- 获取成功 -->
  <g filter="url(#shadow)">
    <rect x="1180" y="145" width="160" height="50" rx="8" fill="url(#greenGrad)"/>
    <text x="1260" y="175" font-family="Microsoft YaHei, Arial, sans-serif" font-size="14" font-weight="bold" fill="white" text-anchor="middle">获取锁成功</text>
  </g>
  
  <!-- Lua脚本原子操作 -->
  <g filter="url(#shadow)">
    <rect x="1180" y="210" width="160" height="50" rx="8" fill="url(#purpleGrad)"/>
    <text x="1260" y="240" font-family="Microsoft YaHei, Arial, sans-serif" font-size="13" font-weight="bold" fill="white" text-anchor="middle">Lua脚本</text>
    <text x="1260" y="258" font-family="Microsoft YaHei, Arial, sans-serif" font-size="11" fill="white" text-anchor="middle">原子扣减库存</text>
  </g>
  
  <!-- Redis DECR -->
  <g filter="url(#shadow)">
    <rect x="1180" y="275" width="160" height="50" rx="8" fill="url(#redGrad)"/>
    <text x="1260" y="305" font-family="Microsoft YaHei, Arial, sans-serif" font-size="14" font-weight="bold" fill="white" text-anchor="middle">DECR原子操作</text>
  </g>
  
  <!-- 扣减结果检查 -->
  <g filter="url(#shadow)">
    <polygon points="1260,360 1340,410 1260,460 1180,410" fill="url(#goldGrad)"/>
    <text x="1260" y="405" font-family="Microsoft YaHei, Arial, sans-serif" font-size="12" font-weight="bold" fill="white" text-anchor="middle">扣减</text>
    <text x="1260" y="425" font-family="Microsoft YaHei, Arial, sans-serif" font-size="12" font-weight="bold" fill="white" text-anchor="middle">成功?</text>
  </g>
  
  <!-- 扣减失败 -->
  <g filter="url(#shadow)">
    <rect x="1060" y="435" width="120" height="40" rx="8" fill="#ef4444"/>
    <text x="1120" y="460" font-family="Microsoft YaHei, Arial, sans-serif" font-size="13" font-weight="bold" fill="white" text-anchor="middle">库存不足</text>
  </g>
  
  <!-- ==================== 中间: 抢红包核心流程 ==================== -->
  <text x="700" y="520" font-family="Microsoft YaHei, Arial, sans-serif" font-size="16" font-weight="bold" fill="#b91c1c" text-anchor="middle">核心流程</text>
  
  <!-- 获取金额 -->
  <g filter="url(#shadow)">
    <rect x="560" y="540" width="280" height="55" rx="10" fill="url(#goldGrad)"/>
    <text x="700" y="572" font-family="Microsoft YaHei, Arial, sans-serif" font-size="15" font-weight="bold" fill="white" text-anchor="middle">获取预分配金额</text>
  </g>
  
  <!-- 方案1: 预计算 -->
  <g filter="url(#shadow)">
    <rect x="420" y="620" width="200" height="50" rx="8" fill="url(#greenGrad)"/>
    <text x="520" y="650" font-family="Microsoft YaHei, Arial, sans-serif" font-size="14" font-weight="bold" fill="white" text-anchor="middle">方案1: 预计算金额</text>
  </g>
  <g filter="url(#shadow)">
    <rect x="420" y="685" width="200" height="50" rx="8" fill="url(#greenGrad)"/>
    <text x="520" y="715" font-family="Microsoft YaHei, Arial, sans-serif" font-size="13" font-weight="bold" fill="white" text-anchor="middle">发红包时提前计算</text>
    <text x="520" y="733" font-family="Microsoft YaHei, Arial, sans-serif" font-size="11" fill="white" text-anchor="middle">存储到Redis List</text>
  </g>
  
  <!-- 方案2: 实时计算 -->
  <g filter="url(#shadow)">
    <rect x="780" y="620" width="200" height="50" rx="8" fill="url(#blueGrad)"/>
    <text x="880" y="650" font-family="Microsoft YaHei, Arial, sans-serif" font-size="14" font-weight="bold" fill="white" text-anchor="middle">方案2: 实时计算</text>
  </g>
  <g filter="url(#shadow)">
    <rect x="780" y="685" width="200" height="50" rx="8" fill="url(#blueGrad)"/>
    <text x="880" y="715" font-family="Microsoft YaHei, Arial, sans-serif" font-size="13" font-weight="bold" fill="white" text-anchor="middle">二倍均值法</text>
    <text x="880" y="733" font-family="Microsoft YaHei, Arial, sans-serif" font-size="11" fill="white" text-anchor="middle">随机金额</text>
  </g>
  
  <!-- 记录抢红包 -->
  <g filter="url(#shadow)">
    <rect x="560" y="760" width="280" height="55" rx="10" fill="url(#pinkGrad)"/>
    <text x="700" y="792" font-family="Microsoft YaHei, Arial, sans-serif" font-size="15" font-weight="bold" fill="white" text-anchor="middle">记录抢红包结果</text>
  </g>
  
  <!-- 更新缓存 -->
  <g filter="url(#shadow)">
    <rect x="560" y="835" width="280" height="55" rx="10" fill="url(#purpleGrad)"/>
    <text x="700" y="867" font-family="Microsoft YaHei, Arial, sans-serif" font-size="15" font-weight="bold" fill="white" text-anchor="middle">更新Redis缓存</text>
  </g>
  
  <!-- 释放锁 -->
  <g filter="url(#shadow)">
    <rect x="560" y="910" width="280" height="55" rx="10" fill="url(#cyanGrad)"/>
    <text x="700" y="942" font-family="Microsoft YaHei, Arial, sans-serif" font-size="15" font-weight="bold" fill="white" text-anchor="middle">释放分布式锁</text>
  </g>
  
  <!-- ==================== 异步数据处理 ==================== -->
  <text x="700" y="1000" font-family="Microsoft YaHei, Arial, sans-serif" font-size="16" font-weight="bold" fill="#1d4ed8" text-anchor="middle">异步数据处理</text>
  
  <!-- 消息队列 -->
  <g filter="url(#shadow)">
    <rect x="480" y="1020" width="180" height="50" rx="8" fill="url(#cyanGrad)"/>
    <text x="570" y="1050" font-family="Microsoft YaHei, Arial, sans-serif" font-size="14" font-weight="bold" fill="white" text-anchor="middle">消息队列</text>
    <text x="570" y="1068" font-family="Microsoft YaHei, Arial, sans-serif" font-size="11" fill="white" text-anchor="middle">Kafka / RocketMQ</text>
  </g>
  
  <!-- 异步写库 -->
  <g filter="url(#shadow)">
    <rect x="680" y="1020" width="180" height="50" rx="8" fill="url(#blueGrad)"/>
    <text x="770" y="1050" font-family="Microsoft YaHei, Arial, sans-serif" font-size="14" font-weight="bold" fill="white" text-anchor="middle">异步写数据库</text>
  </g>
  
  <!-- 发通知 -->
  <g filter="url(#shadow)">
    <rect x="880" y="1020" width="180" height="50" rx="8" fill="url(#greenGrad)"/>
    <text x="970" y="1050" font-family="Microsoft YaHei, Arial, sans-serif" font-size="14" font-weight="bold" fill="white" text-anchor="middle">发送通知</text>
    <text x="970" y="1068" font-family="Microsoft YaHei, Arial, sans-serif" font-size="11" fill="white" text-anchor="middle">推送/消息</text>
  </g>
  
  <!-- ==================== 结果返回 ==================== -->
  <text x="700" y="1110" font-family="Microsoft YaHei, Arial, sans-serif" font-size="16" font-weight="bold" fill="#15803d" text-anchor="middle">返回结果</text>
  
  <!-- 返回金额 -->
  <g filter="url(#shadow)">
    <rect x="560" y="1130" width="280" height="55" rx="10" fill="url(#goldGrad)"/>
    <text x="700" y="1162" font-family="Microsoft YaHei, Arial, sans-serif" font-size="15" font-weight="bold" fill="white" text-anchor="middle">返回抢到的金额</text>
  </g>
  
  <!-- 成功提示 -->
  <g filter="url(#shadow)">
    <ellipse cx="700" cy="1260" rx="80" ry="35" fill="url(#greenGrad)"/>
    <text x="700" y="1258" font-family="Microsoft YaHei, Arial, sans-serif" font-size="16" font-weight="bold" fill="white" text-anchor="middle">抢红包成功!</text>
    <text x="700" y="1278" font-family="Microsoft YaHei, Arial, sans-serif" font-size="12" fill="white" text-anchor="middle">生成记录 → 返回前端</text>
  </g>
  
  <!-- ==================== 数据库存储 ==================== -->
  <text x="180" y="510" font-family="Microsoft YaHei, Arial, sans-serif" font-size="14" font-weight="bold" fill="#64748b" text-anchor="middle">数据存储</text>
  
  <g filter="url(#shadow)">
    <rect x="80" y="530" width="200" height="40" rx="8" fill="#3b82f6"/>
    <text x="180" y="555" font-family="Microsoft YaHei, Arial, sans-serif" font-size="13" font-weight="bold" fill="white" text-anchor="middle">红包主表 (MySQL)</text>
  </g>
  <g filter="url(#shadow)">
    <rect x="80" y="580" width="200" height="40" rx="8" fill="#3b82f6"/>
    <text x="180" y="605" font-family="Microsoft YaHei, Arial, sans-serif" font-size="13" font-weight="bold" fill="white" text-anchor="middle">红包金额表</text>
  </g>
  <g filter="url(#shadow)">
    <rect x="80" y="630" width="200" height="40" rx="8" fill="#3b82f6"/>
    <text x="180" y="655" font-family="Microsoft YaHei, Arial, sans-serif" font-size="13" font-weight="bold" fill="white" text-anchor="middle">抢红包记录表</text>
  </g>
  <g filter="url(#shadow)">
    <rect x="80" y="680" width="200" height="40" rx="8" fill="#10b981"/>
    <text x="180" y="705" font-family="Microsoft YaHei, Arial, sans-serif" font-size="13" font-weight="bold" fill="white" text-anchor="middle">Redis (实时数据)</text>
  </g>
  <g filter="url(#shadow)">
    <rect x="80" y="730" width="200" height="40" rx="8" fill="#ec4899"/>
    <text x="180" y="755" font-family="Microsoft YaHei, Arial, sans-serif" font-size="13" font-weight="bold" fill="white" text-anchor="middle">ES (查询/统计)</text>
  </g>
  
  <!-- ==================== 关键技术点 ==================== -->
  <text x="1220" y="510" font-family="Microsoft YaHei, Arial, sans-serif" font-size="14" font-weight="bold" fill="#64748b" text-anchor="middle">关键技术点</text>
  
  <g filter="url(#shadow)">
    <rect x="1120" y="530" width="180" height="35" rx="6" fill="#f59e0b"/>
    <text x="1210" y="553" font-family="Microsoft YaHei, Arial, sans-serif" font-size="12" font-weight="bold" fill="white" text-anchor="middle">预计算金额</text>
  </g>
  <g filter="url(#shadow)">
    <rect x="1120" y="575" width="180" height="35" rx="6" fill="#f59e0b"/>
    <text x="1210" y="598" font-family="Microsoft YaHei, Arial, sans-serif" font-size="12" font-weight="bold" fill="white" text-anchor="middle">Redis原子操作</text>
  </g>
  <g filter="url(#shadow)">
    <rect x="1120" y="620" width="180" height="35" rx="6" fill="#f59e0b"/>
    <text x="1210" y="643" font-family="Microsoft YaHei, Arial, sans-serif" font-size="12" font-weight="bold" fill="white" text-anchor="middle">Lua脚本</text>
  </g>
  <g filter="url(#shadow)">
    <rect x="1120" y="665" width="180" height="35" rx="6" fill="#f59e0b"/>
    <text x="1210" y="688" font-family="Microsoft YaHei, Arial, sans-serif" font-size="12" font-weight="bold" fill="white" text-anchor="middle">分布式锁</text>
  </g>
  <g filter="url(#shadow)">
    <rect x="1120" y="710" width="180" height="35" rx="6" fill="#f59e0b"/>
    <text x="1210" y="733" font-family="Microsoft YaHei, Arial, sans-serif" font-size="12" font-weight="bold" fill="white" text-anchor="middle">限流熔断</text>
  </g>
  <g filter="url(#shadow)">
    <rect x="1120" y="755" width="180" height="35" rx="6" fill="#f59e0b"/>
    <text x="1210" y="778" font-family="Microsoft YaHei, Arial, sans-serif" font-size="12" font-weight="bold" fill="white" text-anchor="middle">异步解耦</text>
  </g>
  <g filter="url(#shadow)">
    <rect x="1120" y="800" width="180" height="35" rx="6" fill="#f59e0b"/>
    <text x="1210" y="823" font-family="Microsoft YaHei, Arial, sans-serif" font-size="12" font-weight="bold" fill="white" text-anchor="middle">热点隔离</text>
  </g>
  <g filter="url(#shadow)">
    <rect x="1120" y="845" width="180" height="35" rx="6" fill="#f59e0b"/>
    <text x="1210" y="868" font-family="Microsoft YaHei, Arial, sans-serif" font-size="12" font-weight="bold" fill="white" text-anchor="middle">多级缓存</text>
  </g>
  
  <!-- ==================== 连线 ==================== -->
  <g stroke="#94a3b8" stroke-width="1.5" fill="none">
    <!-- 用户请求层 -->
    <line x1="120" y1="195" x2="120" y2="220"/>
    <line x1="120" y1="265" x2="120" y2="280"/>
    <line x1="120" y1="325" x2="120" y2="340"/>
    
    <!-- 限流层 -->
    <line x1="200" y1="175" x2="260" y2="175"/>
    <line x1="260" y1="195" x2="260" y2="210"/>
    <line x1="260" y1="260" x2="260" y2="275"/>
    <line x1="270" y1="400" x2="150" y2="400"/>
    <line x1="270" y1="400" x2="270" y2="350"/>
    <line x1="350" y1="450" x2="500" y2="175"/>
    <line x1="350" y1="450" x2="500" y2="210"/>
    <line x1="350" y1="450" x2="740" y2="175"/>
    
    <!-- 缓存层 -->
    <line x1="440" y1="310" x2="500" y2="310"/>
    <line x1="500" y1="195" x2="500" y2="210"/>
    <line x1="500" y1="260" x2="500" y2="275"/>
    <line x1="740" y1="195" x2="740" y2="210"/>
    <line x1="740" y1="260" x2="740" y2="275"/>
    <line x1="820" y1="325" x2="820" y2="360"/>
    <line x1="740" y1="460" x2="680" y2="460"/>
    
    <!-- 分布式锁层 -->
    <line x1="900" y1="325" x2="970" y2="325"/>
    <line x1="970" y1="195" x2="970" y2="210"/>
    <line x1="970" y1="260" x2="970" y2="275"/>
    <line x1="1050" y1="360" x2="1050" y2="410"/>
    <line x1="970" y1="410" x2="890" y2="410"/>
    <line x1="1050" y1="460" x2="1180" y2="210"/>
    
    <!-- 扣减库存层 -->
    <line x1="1130" y1="325" x2="1180" y2="325"/>
    <line x1="1180" y1="195" x2="1180" y2="210"/>
    <line x1="1180" y1="260" x2="1180" y2="275"/>
    <line x1="1260" y1="325" x2="1260" y2="360"/>
    <line x1="1180" y1="410" x2="1100" y2="410"/>
    <line x1="1260" y1="460" x2="1260" y2="540"/>
    
    <!-- 核心流程 -->
    <line x1="700" y1="595" x2="520" y2="620"/>
    <line x1="700" y1="595" x2="880" y2="620"/>
    <line x1="520" y1="670" x2="520" y2="735"/>
    <line x1="520" y1="670" x2="880" y2="670"/>
    <line x1="880" y1="670" x2="880" y2="735"/>
    <line x1="520" y1="760" x2="700" y2="760"/>
    <line x1="880" y1="760" x2="880" y2="800"/>
    <line x1="700" y1="815" x2="700" y2="835"/>
    <line x1="700" y1="890" x2="700" y2="910"/>
    
    <!-- 异步处理 -->
    <line x1="700" y1="965" x2="570" y2="1020"/>
    <line x1="700" y1="965" x2="770" y2="1020"/>
    <line x1="700" y1="965" x2="970" y2="1020"/>
    <line x1="570" y1="1070" x2="570" y2="1130"/>
    <line x1="770" y1="1070" x2="770" y2="1150"/>
    <line x1="970" y1="1070" x2="700" y2="1185"/>
    
    <!-- 结果返回 -->
    <line x1="700" y1="1225" x2="700" y2="1260"/>
    
    <!-- 数据存储连接 -->
    <line x1="310" y1="555" x2="310" y2="530"/>
    <line x1="310" y1="555" x2="560" y2="555"/>
    <line x1="310" y1="605" x2="310" y2="580"/>
    <line x1="310" y1="655" x2="310" y2="630"/>
    <line x1="310" y1="705" x2="310" y2="680"/>
    <line x1="310" y1="755" x2="310" y2="730"/>
  </g>
  
  <!-- 图例 -->
  <g transform="translate(30, 1010)">
    <text x="0" y="0" font-family="Microsoft YaHei, Arial, sans-serif" font-size="12" font-weight="bold" fill="#64748b">图例:</text>
    <rect x="0" y="15" width="20" height="14" rx="3" fill="url(#redGrad)"/>
    <text x="28" y="27" font-family="Microsoft YaHei, Arial, sans-serif" font-size="10" fill="#64748b">红包/金额</text>
    <rect x="100" y="15" width="20" height="14" rx="3" fill="url(#blueGrad)"/>
    <text x="128" y="27" font-family="Microsoft YaHei, Arial, sans-serif" font-size="10" fill="#64748b">请求/分发</text>
    <rect x="200" y="15" width="20" height="14" rx="3" fill="url(#greenGrad)"/>
    <text x="228" y="27" font-family="Microsoft YaHei, Arial, sans-serif" font-size="10" fill="#64748b">成功/通过</text>
    <rect x="0" y="38" width="20" height="14" rx="3" fill="url(#purpleGrad)"/>
    <text x="28" y="50" font-family="Microsoft YaHei, Arial, sans-serif" font-size="10" fill="#64748b">缓存/计算</text>
    <rect x="100" y="38" width="20" height="14" rx="3" fill="url(#cyanGrad)"/>
    <text x="128" y="50" font-family="Microsoft YaHei, Arial, sans-serif" font-size="10" fill="#64748b">队列/锁</text>
    <rect x="200" y="38" width="20" height="14" rx="3" fill="url(#goldGrad)"/>
    <text x="228" y="50" font-family="Microsoft YaHei, Arial, sans-serif" font-size="10" fill="#64748b">决策</text>
  </g>
</svg>