<svg xmlns="http://www.w3.org/2000/svg" width="1200" height="720" viewBox="0 0 1200 720" role="img" aria-labelledby="title desc" font-family="Inter, Noto Sans SC, Microsoft YaHei, Arial, sans-serif">
  <title id="title">抢红包系统开发路线图</title><desc id="desc">按季度和工作流展示产品、技术与运营关键任务。</desc>
  <rect width="1200" height="720" fill="#0B1220"/><text x="48" y="58" font-size="28" font-weight="700" fill="#F8FAFC">抢红包系统开发路线图</text><text x="48" y="84" font-size="13" fill="#94A3B8">时间轴与工作流双向对齐，突出阶段目标和关键交付</text>
  <rect x="48" y="120" width="1104" height="526" rx="18" fill="#121C2E" stroke="#31415E"/>
  <g fill="#F8FAFC" font-size="14" font-weight="700" text-anchor="middle"><text x="310" y="160">Q1 · 基础建设</text><text x="550" y="160">Q2 · 核心能力</text><text x="790" y="160">Q3 · 规模增长</text><text x="1030" y="160">Q4 · 智能化</text></g>
  <g fill="#94A3B8" font-size="14" font-weight="600"><text x="72" y="238">产品</text><text x="72" y="374">技术</text><text x="72" y="510">运营</text></g>
  <g stroke="#31415E"><line x1="190" y1="184" x2="190" y2="610"/><line x1="430" y1="184" x2="430" y2="610"/><line x1="670" y1="184" x2="670" y2="610"/><line x1="910" y1="184" x2="910" y2="610"/><line x1="1128" y1="184" x2="1128" y2="610"/></g>
  <g fill="#1A2740" stroke="#31415E"><rect id="road-product-1" data-role="node" x="214" y="202" width="192" height="74" rx="12"/><rect id="road-product-2" data-role="node" x="454" y="202" width="192" height="74" rx="12"/><rect id="road-product-3" data-role="node" x="694" y="202" width="192" height="74" rx="12"/><rect id="road-product-4" data-role="node" x="934" y="202" width="170" height="74" rx="12"/></g>
  <g fill="#153629" stroke="#4ADE80"><rect id="road-tech-1" data-role="node" x="214" y="338" width="192" height="74" rx="12"/><rect id="road-tech-2" data-role="node" x="454" y="338" width="192" height="74" rx="12"/><rect id="road-tech-3" data-role="node" x="694" y="338" width="192" height="74" rx="12"/><rect id="road-tech-4" data-role="node" x="934" y="338" width="170" height="74" rx="12"/></g>
  <g fill="#3A2A18" stroke="#FBBF24"><rect id="road-ops-1" data-role="node" x="214" y="474" width="192" height="74" rx="12"/><rect id="road-ops-2" data-role="node" x="454" y="474" width="192" height="74" rx="12"/><rect id="road-ops-3" data-role="node" x="694" y="474" width="192" height="74" rx="12"/><rect id="road-ops-4" data-role="node" x="934" y="474" width="170" height="74" rx="12"/></g>
  <g fill="#CBD5E1" font-size="13" text-anchor="middle"><text x="310" y="246">红包主链路 MVP</text><text x="550" y="246">运营配置能力</text><text x="790" y="246">高并发与容灾</text><text x="1019" y="246">智能风控</text><text x="310" y="382">服务与数据底座</text><text x="550" y="382">库存原子扣减</text><text x="790" y="382">多活与容灾</text><text x="1019" y="382">风险模型接入</text><text x="310" y="518">内部场景验证</text><text x="550" y="518">活动运营试点</text><text x="790" y="518">规模活动保障</text><text x="1019" y="518">精细运营分析</text></g>
</svg>
